<svg width="194" height="194" viewBox="0 0 194 194" fill="none" xmlns="http://www.w3.org/2000/svg">
<g clip-path="url(#clip0)">
<path d="M112.609 82.8144L128.945 66.3082L106.49 63.0507L96.6039 41.6056L86.7261 63.0507L64.2706 66.3001L80.607 82.8063L76.63 106.272L96.6039 95.0283L116.586 106.272L112.609 82.8144ZM35.9708 119.335C28.9707 108.164 24.8643 94.9879 24.8643 80.834C24.8643 40.6517 57.4321 8.08398 97.6143 8.08398C137.797 8.08398 170.364 40.6517 170.364 80.834C170.364 95.3193 166.08 108.786 158.781 120.127C153.874 117.621 148.855 115.398 143.73 113.507C150.293 104.268 154.198 93.0075 154.198 80.834C154.198 49.6323 128.808 24.2507 97.6143 24.2507C66.4207 24.2507 41.031 49.6323 41.031 80.834C41.031 92.765 44.7655 103.823 51.0867 112.957C45.9457 114.776 40.9017 116.902 35.9708 119.335ZM159.702 139.139L140.836 165.992C127.878 158.523 112.965 154.158 97 154.085C81.0354 154.158 66.1217 158.523 53.1641 165.992L34.2976 139.139C52.6144 127.936 74.0029 121.34 97 121.267C119.997 121.34 141.386 127.936 159.702 139.139ZM194 161.667H174.931L170.356 185.917C165.401 177.737 159.137 170.462 151.951 164.254L170.89 137.296C179.684 144.401 187.477 152.234 194 161.667ZM23.1183 137.296L42.0576 164.254C34.8634 170.47 28.6069 177.737 23.6518 185.917L19.0767 161.667H0C6.52325 152.234 14.3156 144.401 23.1183 137.296Z" fill="#FFB606"/>
<path d="M90.51 128.133V132.243H84.93V149.193H79.8V132.243H74.22V128.133H90.51ZM105.835 138.393C107.055 138.653 108.035 139.263 108.775 140.223C109.515 141.163 109.885 142.243 109.885 143.463C109.885 145.223 109.265 146.623 108.025 147.663C106.805 148.683 105.095 149.193 102.895 149.193H93.0846V128.133H102.565C104.705 128.133 106.375 128.623 107.575 129.603C108.795 130.583 109.405 131.913 109.405 133.593C109.405 134.833 109.075 135.863 108.415 136.683C107.775 137.503 106.915 138.073 105.835 138.393ZM98.2146 136.653H101.575C102.415 136.653 103.055 136.473 103.495 136.113C103.955 135.733 104.185 135.183 104.185 134.463C104.185 133.743 103.955 133.193 103.495 132.813C103.055 132.433 102.415 132.243 101.575 132.243H98.2146V136.653ZM101.995 145.053C102.855 145.053 103.515 144.863 103.975 144.483C104.455 144.083 104.695 143.513 104.695 142.773C104.695 142.033 104.445 141.453 103.945 141.033C103.465 140.613 102.795 140.403 101.935 140.403H98.2146V145.053H101.995ZM117.99 128.133V149.193H112.86V128.133H117.99Z" fill="white" fill-opacity="0.7"/>
</g>
<defs>
<clipPath id="clip0">
<rect width="194" height="194" fill="white"/>
</clipPath>
</defs>
</svg>
