<svg width="54" height="52" viewBox="0 0 54 52" fill="none" xmlns="http://www.w3.org/2000/svg">
<path fill-rule="evenodd" clip-rule="evenodd" d="M12.7395 49.8337L0.65925 38.2095C0.2205 37.787 0 37.2345 0 36.6777C0 36.123 0.2205 35.5683 0.65925 35.1458L34.2495 2.80183C34.6883 2.38149 35.2642 2.16699 35.8402 2.16699C36.414 2.16699 36.9922 2.38149 37.431 2.80183L53.3408 18.1267C53.7818 18.5492 54 19.1038 54 19.6607C54 20.2153 53.7818 20.7678 53.3408 21.1925L28.1047 45.5003H40.5112V49.8337H12.7395ZM20.9678 45.5003L8.62425 33.614L5.4315 36.6777L14.6025 45.5003H20.9678ZM35.829 7.40816L11.8058 30.5482L24.5362 42.8093L48.5572 19.665L35.829 7.40816Z" fill="#FFB606"/>
</svg>