<svg width="174" height="171" viewBox="0 0 174 171" fill="none" xmlns="http://www.w3.org/2000/svg">
<path d="M105.618 0.534375C121.582 8.89913 148.668 35.3257 159.5 49.5615C150.176 43.149 130.181 37.7554 115.34 41.1611C116.949 30.7016 113.999 8.85637 105.618 0.534375ZM159.5 78.375V171H14.4995V0H75.4648C110.678 0 99.6435 57 99.6435 57C121.459 51.6919 159.5 54.0146 159.5 78.375ZM43.4995 114H79.7495V85.5H43.4995V114ZM130.5 128.25H43.4995V135.375H130.5V128.25ZM130.5 106.875H94.2495V114H130.5V106.875ZM130.5 85.5H94.2495V92.625H130.5V85.5Z" fill="#FFB606"/>
</svg>
