<svg width="329" height="276" viewBox="0 0 329 276" fill="none" xmlns="http://www.w3.org/2000/svg">
<g clip-path="url(#clip0)">
<path d="M18.2399 272.29C18.2399 272.29 12.904 262.755 0 266.878L18.2399 272.29Z" fill="#E6E6E6"/>
<path d="M18.5612 272.057C18.5612 272.057 11.9623 263.936 21.4867 253.805L18.5612 272.057Z" fill="#E6E6E6"/>
<path d="M329 271.689H0V272.407H329V271.689Z" fill="#3F3D56"/>
<path d="M249.667 184.033L256.791 210.854C256.791 210.854 257.054 229.757 258.637 237.165C260.22 244.573 265.497 262.454 265.497 262.454L271.829 263.476L270.51 238.442C270.51 238.442 270.51 223.371 269.191 220.05C267.872 216.73 265.233 182.756 265.233 182.756L249.667 184.033Z" fill="#FBBEBE"/>
<path opacity="0.1" d="M249.296 182.238L256.419 209.06C256.419 209.06 256.683 227.962 258.266 235.37C259.849 242.778 265.126 260.659 265.126 260.659L271.458 261.681L270.139 236.647C270.139 236.647 270.139 221.576 268.82 218.255C267.501 214.935 264.862 180.961 264.862 180.961L249.296 182.238Z" fill="black"/>
<path d="M269.417 71.6133H269.417C260.622 71.6133 253.493 79.2735 253.493 88.7229V100.728H257.307L259.515 96.2803L258.963 100.728H283.476L285.483 96.6846L284.981 100.728H287.741V91.3019C287.741 80.4282 279.537 71.6133 269.417 71.6133Z" fill="#2F2E41"/>
<path d="M242.939 179.818C242.939 179.818 239.773 192.846 243.994 194.123C248.215 195.4 247.16 179.818 247.16 179.818H242.939Z" fill="#FBBEBE"/>
<path d="M248.215 113.658L246.104 115.957L246.632 160.149L241.883 181.095L252.436 182.117L257.713 139.969L256.13 118.512L248.215 113.658Z" fill="#D0CDE1"/>
<path opacity="0.1" d="M248.119 113.658L246.009 115.957L246.536 160.149L241.787 181.095L252.341 182.117L257.617 139.969L256.034 118.512L248.119 113.658Z" fill="black"/>
<path d="M268.008 99.0505C274.269 99.0505 279.344 94.1366 279.344 88.075C279.344 82.0135 274.269 77.0996 268.008 77.0996C261.747 77.0996 256.672 82.0135 256.672 88.075C256.672 94.1366 261.747 99.0505 268.008 99.0505Z" fill="#FBBEBE"/>
<path d="M261.508 94.6614C261.508 94.6614 264.833 111.344 263.322 113.1C261.81 114.856 279.343 109.881 279.343 109.881C279.343 109.881 273.6 98.4662 276.623 92.0273L261.508 94.6614Z" fill="#FBBEBE"/>
<path d="M290.165 167.812C290.165 167.812 293.331 180.84 289.109 182.117C284.888 183.394 285.943 167.812 285.943 167.812H290.165Z" fill="#FBBEBE"/>
<path d="M265.76 180.967C265.76 180.967 261.275 207.022 261.539 210.854C261.803 214.685 261.539 215.196 261.539 215.196C261.539 215.196 257.054 226.435 255.734 232.822C254.415 239.208 251.513 247.382 251.513 247.382C251.513 247.382 248.083 254.79 250.985 254.79C253.888 254.79 257.845 253.768 257.845 253.768C257.835 250.817 258.858 247.95 260.747 245.635C263.913 241.762 273.411 223.626 273.411 221.327C273.411 219.028 274.994 212.386 274.994 212.386L281.063 184.032L265.76 180.967Z" fill="#FBBEBE"/>
<path d="M247.292 163.597C247.292 163.597 242.807 185.566 246.765 186.076C250.722 186.587 256.263 182.756 263.386 187.098C270.51 191.441 282.383 190.419 282.383 190.419C282.383 190.419 290.561 170.239 283.174 165.386C275.787 160.532 247.292 163.597 247.292 163.597Z" fill="#2F2E41"/>
<path d="M252.305 251.724C253.466 251.235 254.742 251.058 255.998 251.214C257.201 251.386 258.426 251.112 259.428 250.447C259.428 250.447 257.318 257.855 257.581 260.665C257.845 263.475 256.79 275.481 251.249 274.203C245.709 272.926 244.126 269.094 246.236 262.453C248.347 255.811 247.819 248.148 247.819 248.148C247.819 248.148 251.67 244.297 252.383 244.818C253.096 245.338 252.305 251.724 252.305 251.724Z" fill="#2F2E41"/>
<path d="M269.982 261.176C269.982 261.176 267.343 255.556 264.177 260.665C261.011 265.774 260.747 267.051 260.747 267.051C260.747 267.051 251.777 274.97 258.109 275.736C264.441 276.502 269.454 275.48 269.454 274.203C269.454 272.926 272.62 273.182 272.884 272.16C273.148 271.138 272.356 261.687 272.356 261.687L269.982 261.176Z" fill="#2F2E41"/>
<path d="M275.918 103.186C275.918 103.186 264.837 105.23 263.518 104.974C263.22 104.923 262.92 104.892 262.618 104.882C260.038 104.768 257.48 105.383 255.254 106.65C251.58 108.716 246.104 112.394 246.104 115.958C246.104 121.322 253.228 130.518 253.228 130.518C253.228 130.518 246.632 152.486 247.16 154.53C247.687 156.573 243.202 163.47 246.104 165.769C249.007 168.068 276.709 165.769 281.722 168.068C286.735 170.367 284.361 137.415 284.361 137.415C284.361 137.415 297.816 107.529 290.957 104.719C288.737 103.809 286.821 103.114 285.245 102.59C283.727 102.084 282.121 101.876 280.519 101.979C278.918 102.081 277.354 102.491 275.918 103.186V103.186Z" fill="#D0CDE1"/>
<path d="M286.207 104.973L292.261 105.941C292.261 105.941 294.914 108.549 294.914 109.826C294.914 111.103 294.386 166.279 293.595 168.067C292.803 169.855 284.097 169.089 284.097 169.089L285.68 137.669L286.207 104.973Z" fill="#D0CDE1"/>
<path d="M273.943 76.3279C273.177 75.3317 272.184 74.5197 271.041 73.9551C269.898 73.3905 268.637 73.0884 267.354 73.0723H267.041C261.013 73.0723 256.127 78.3531 256.127 84.8674V84.8674H258.147L258.473 82.4637L258.951 84.8674H270.93L271.934 82.8338L271.683 84.8674H274.039C275.139 90.1549 273.559 95.4424 269.299 100.73H273.314L275.321 96.6626L274.819 100.73H282.471L283.977 91.3751C283.977 84.3692 279.772 78.4284 273.943 76.3279Z" fill="#2F2E41"/>
<path d="M276.144 77.3106C279.438 77.3106 282.108 74.7253 282.108 71.5361C282.108 68.347 279.438 65.7617 276.144 65.7617C272.85 65.7617 270.18 68.347 270.18 71.5361C270.18 74.7253 272.85 77.3106 276.144 77.3106Z" fill="#2F2E41"/>
<path d="M208.844 64.6547H207.3V23.7022C207.3 20.5896 206.666 17.5075 205.436 14.6318C204.206 11.7561 202.402 9.14316 200.129 6.9422C197.856 4.74124 195.157 2.99535 192.187 1.80421C189.217 0.613062 186.033 -8.00796e-06 182.818 1.08578e-10H93.2038C89.9889 -9.42115e-06 86.8055 0.61306 83.8353 1.8042C80.8651 2.99535 78.1663 4.74124 75.893 6.9422C73.6197 9.14315 71.8165 11.7561 70.5862 14.6318C69.3559 17.5075 68.7227 20.5896 68.7227 23.7022V248.371C68.7227 251.483 69.3559 254.566 70.5862 257.441C71.8165 260.317 73.6197 262.93 75.893 265.131C78.1663 267.332 80.8651 269.078 83.8353 270.269C86.8055 271.46 89.9889 272.073 93.2038 272.073H182.818C186.033 272.073 189.217 271.46 192.187 270.269C195.157 269.078 197.856 267.332 200.129 265.131C202.403 262.93 204.206 260.317 205.436 257.441C206.666 254.566 207.3 251.483 207.3 248.371V93.8054H208.844V64.6547Z" fill="#3F3D56"/>
<path opacity="0.2" d="M183.806 6.16602H172.108C172.646 7.44292 172.852 8.82833 172.706 10.2002C172.561 11.572 172.069 12.8882 171.275 14.0328C170.48 15.1774 169.407 16.1152 168.15 16.7637C166.893 17.4122 165.491 17.7515 164.066 17.7516H112.727C111.303 17.7515 109.9 17.4122 108.643 16.7637C107.386 16.1152 106.313 15.1774 105.519 14.0328C104.724 12.8882 104.233 11.572 104.087 10.2002C103.942 8.82833 104.147 7.44292 104.685 6.16602H93.7598C91.3589 6.16601 88.9816 6.62385 86.7635 7.51338C84.5454 8.40291 82.5299 9.70672 80.8323 11.3504C79.1346 12.994 77.788 14.9453 76.8692 17.0928C75.9504 19.2404 75.4775 21.5421 75.4775 23.8665V248.206C75.4775 250.53 75.9504 252.832 76.8692 254.979C77.788 257.127 79.1346 259.078 80.8323 260.722C82.5299 262.365 84.5454 263.669 86.7635 264.559C88.9816 265.448 91.3589 265.906 93.7598 265.906H183.806C186.207 265.906 188.584 265.448 190.802 264.559C193.02 263.669 195.036 262.365 196.733 260.722C198.431 259.078 199.778 257.127 200.697 254.979C201.615 252.832 202.088 250.53 202.088 248.206V23.8665C202.088 21.5421 201.615 19.2404 200.697 17.0928C199.778 14.9453 198.431 12.994 196.733 11.3504C195.036 9.70672 193.02 8.40291 190.802 7.51338C188.584 6.62385 186.207 6.16601 183.806 6.16602V6.16602Z" fill="black"/>
<path d="M162.545 156.445H179.894V152.402H162.545V156.445Z" fill="#F9A826"/>
<path d="M102.469 156.445H108.573V152.402H102.469V156.445Z" fill="#F9A826"/>
<path d="M90.2612 156.445H96.3652V152.402H90.2612V156.445Z" fill="#F9A826"/>
<path d="M114.998 156.445H156.441V152.402H114.998V156.445Z" fill="#F9A826"/>
<path d="M124.315 182.572H130.419V178.529H124.315V182.572Z" fill="#F9A826"/>
<path d="M112.107 182.572H118.211V178.529H112.107V182.572Z" fill="#F9A826"/>
<path d="M136.844 182.572H178.287V178.529H136.844V182.572Z" fill="#F9A826"/>
<path d="M112.749 165.465H130.098V161.421H112.749V165.465Z" fill="#F9A826"/>
<path d="M89.2973 165.465H106.646V161.421H89.2973V165.465Z" fill="#F9A826"/>
<path d="M183.427 165.465H189.531V161.421H183.427V165.465Z" fill="#F9A826"/>
<path d="M135.88 165.465H177.323V161.421H135.88V165.465Z" fill="#F9A826"/>
<path d="M166.079 170.131H148.73V174.174H166.079V170.131Z" fill="#F9A826"/>
<path d="M189.532 170.131H172.184V174.174H189.532V170.131Z" fill="#F9A826"/>
<path d="M95.4009 170.131H89.2969V174.174H95.4009V170.131Z" fill="#F9A826"/>
<path d="M142.948 170.131H101.505V174.174H142.948V170.131Z" fill="#F9A826"/>
<path d="M138.852 118.385C157.16 118.385 172.001 104.016 172.001 86.2909C172.001 68.5661 157.16 54.1973 138.852 54.1973C120.545 54.1973 105.704 68.5661 105.704 86.2909C105.704 104.016 120.545 118.385 138.852 118.385Z" fill="#F9A826"/>
<path d="M136.484 97.7527C142.368 97.7527 147.139 93.1342 147.139 87.4369C147.139 81.7396 142.368 77.1211 136.484 77.1211C130.599 77.1211 125.829 81.7396 125.829 87.4369C125.829 93.1342 130.599 97.7527 136.484 97.7527Z" fill="white"/>
<path d="M136.807 88.0553C136.145 87.0673 136.48 85.724 136.015 84.6353C135.285 82.9256 133.016 82.5251 131.112 82.3691C129.85 82.2124 128.573 82.2157 127.313 82.379C126.756 82.4686 126.228 82.6824 125.77 83.0033C125.313 83.3243 124.939 83.7437 124.678 84.2285C124.396 84.7754 124.467 83.0616 124.648 80.8617C124.831 78.6166 125.745 76.4857 127.259 74.776C128.772 73.0662 130.808 71.8659 133.071 71.348C133.098 71.3419 133.125 71.3358 133.151 71.3299C135.47 70.8122 137.86 70.4311 140.223 70.6999C142.585 70.9687 144.941 71.9562 146.415 73.7637C147.089 74.5899 147.566 75.5641 148.318 76.3241C149.64 77.6596 151.6 78.1455 153.4 78.7651C155.435 79.4659 157.414 80.4272 158.971 81.8775C160.529 83.3278 161.632 85.3151 161.665 87.4067C161.703 89.8466 160.1 92.3645 157.517 92.8456C157.068 92.9214 156.643 93.0987 156.278 93.3631C153.812 95.2146 156.625 97.1529 156.606 99.2373C156.589 100.977 154.59 102.11 152.795 102.191C151.117 102.22 149.481 101.684 148.167 100.673C146.853 99.6627 145.944 98.2411 145.593 96.6522C145.323 95.2248 145.532 93.7588 145.708 92.3176C145.909 90.6679 142.24 86.7834 144.664 89.6307C145.137 90.1718 145.456 90.8229 145.591 91.5198C145.994 93.7944 143.856 94.5595 142.508 95.8199C141.768 96.5328 141.249 97.4322 141.01 98.4163C140.771 99.4003 140.821 100.429 141.156 101.387C140.044 100.412 139.319 99.0917 139.105 97.6541C138.891 96.2166 139.202 94.7519 139.985 93.5128C140.419 92.868 140.979 92.307 141.391 91.6484C142.033 90.6209 142.211 88.3859 140.412 88.4473C139.128 88.4911 137.794 89.5259 136.807 88.0553Z" fill="#2F2E41"/>
</g>
<defs>
<clipPath id="clip0">
<rect width="329" height="276" fill="white"/>
</clipPath>
</defs>
</svg>
