<svg width="33" height="33" viewBox="0 0 33 33" fill="none" xmlns="http://www.w3.org/2000/svg">
<g clip-path="url(#clip0)">
<path fill-rule="evenodd" clip-rule="evenodd" d="M15.9138 20.7233H16.7471L16.7525 16.4607H15.9178L15.9138 20.7233ZM14.3658 18.198H15.2005L15.2138 15.8807H14.3778L14.3658 18.198ZM17.5125 18.1807H18.3485L18.3351 15.8807H17.5005L17.5125 18.1807ZM14.9578 6.00066C14.9578 6.76065 15.5725 7.37532 16.3325 7.37532C17.0925 7.37532 17.7072 6.76065 17.7085 6.00066C17.7072 5.24199 17.0925 4.62732 16.3325 4.62599C15.5725 4.62599 14.9578 5.24199 14.9578 6.00066ZM17.0191 9.43666C17.0191 9.05665 16.7125 8.74999 16.3325 8.74999C15.9525 8.74999 15.6458 9.05665 15.6458 9.43666C15.6458 9.81666 15.9525 10.1233 16.3325 10.1247C16.7125 10.1233 17.0191 9.81666 17.0191 9.43666ZM10.5391 16.4607C10.0965 12.5553 12.1471 11.0047 12.9885 10.1793L12.9858 10.1673C12.8138 9.03399 12.0632 4.16466 16.3232 0.437988C20.6552 4.18066 19.9538 8.99266 19.7818 10.1793C20.6232 11.0047 22.6805 12.5553 22.2378 16.4607C21.5711 14.9767 20.2938 14.018 18.8232 13.6953C18.7058 13.9833 18.4271 14.638 18.2991 14.9047L14.5592 14.9167C14.4258 14.646 14.1018 13.974 13.9778 13.6767C12.6112 13.9313 11.4285 14.586 10.5391 16.4607ZM17.0471 24.3793V32.438L25.4018 27.9807V24.6953L20.0125 27.5167L17.0471 24.3793ZM7.36715 24.6327V27.9807L15.7138 32.434V24.4367L12.8191 27.6167L7.36715 24.6327ZM9.52315 17.9527C8.71382 16.2447 9.00848 14.002 9.48182 12.618L4.36182 15.2633L7.36715 18.0913L4.36182 21.4007L12.5392 25.9433L15.7138 22.4567V22.402L8.44715 18.546L9.52315 17.9527ZM25.4018 18.0913L28.4072 21.546L20.2885 25.866L17.0471 22.4393V22.434L24.3232 18.546L23.2218 17.9393C24.1032 16.2553 23.7698 14.0233 23.2498 12.6287L28.4072 15.3193L25.3712 18.074L25.4018 18.0913Z" fill="black"/>
</g>
<defs>
<clipPath id="clip0">
<rect width="32" height="32" fill="white" transform="translate(0.407227 0.437988)"/>
</clipPath>
</defs>
</svg>
